<?xml version="1.0" encoding="UTF-8"?>
<svg width="109px" height="108px" viewBox="0 0 109 108" version="1.1" xmlns="http://www.w3.org/2000/svg" xmlns:xlink="http://www.w3.org/1999/xlink">
    <title>logo</title>
    <g id="Page-1" stroke="none" stroke-width="1" fill="none" fill-rule="evenodd">
        <g id="logo" fill="#654FF0" fill-rule="nonzero">
            <g id="icon">
                <path d="M66.55,0 C66.55,0.19 66.55,0.38 66.55,0.58 C66.55,7.39519381 61.0251938,12.92 54.21,12.92 C47.3948062,12.92 41.87,7.39519381 41.87,0.58 C41.87,0.38 41.87,0.19 41.87,0 L0.43,0 L0.43,107.62 L108.05,107.62 L108.05,0 L66.55,0 Z M51.79,96.1 L46.55,70.17 L46.46,70.17 L40.79,96.1 L33.57,96.1 L25.39,58 L32.52,58 L37.4,83.93 L37.49,83.93 L43.37,58 L50.04,58 L55.32,84.25 L55.41,84.25 L60.98,58 L67.98,58 L58.89,96.1 L51.79,96.1 Z M91.05,96.1 L88.62,87.62 L75.79,87.62 L73.92,96.1 L66.79,96.1 L76.01,58 L87.26,58 L98.47,96.1 L91.05,96.1 Z" id="Shape"></path>
                <polygon id="Path" points="80.3 67.39 77.19 81.37 86.87 81.37 83.3 67.39"></polygon>
            </g>
        </g>
    </g>
</svg>